HIERARCHY
ROOT joint_Root
{
	OFFSET 0.0 0.0 0.0
	CHANNELS 6 Xposition Yposition Zposition Zrotation Xrotation Yrotation 
	JOINT Hips
	{
		OFFSET 4.5925 91.4895 -427.239
		CHANNELS 6 Xposition Yposition Zposition Zrotation Xrotation Yrotation 
		JOINT Spine
		{
			OFFSET 15.7357 0.0 0.0
			CHANNELS 6 Xposition Yposition Zposition Zrotation Xrotation Yrotation 
			JOINT Chest
			{
				OFFSET 8.98455 -0.406207 0.0
				CHANNELS 6 Xposition Yposition Zposition Zrotation Xrotation Yrotation 
				JOINT Neck
				{
					OFFSET 16.3773 0.0 0.0
					CHANNELS 6 Xposition Yposition Zposition Zrotation Xrotation Yrotation 
					JOINT Head
					{
						OFFSET 6.45672 0.0 0.0
						CHANNELS 6 Xposition Yposition Zposition Zrotation Xrotation Yrotation 
						End Site
						{
							OFFSET 0.0 0.0 0.0
						}
					}
				}
				JOINT Shoulder_L
				{
					OFFSET 12.9942 -0.242716 4.98039
					CHANNELS 6 Xposition Yposition Zposition Zrotation Xrotation Yrotation 
					JOINT UpperArm_L
					{
						OFFSET 5.34809 0.0 0.0
						CHANNELS 6 Xposition Yposition Zposition Zrotation Xrotation Yrotation 
						JOINT LowerArm_L
						{
							OFFSET 24.3286 1.87007e-05 0.0
							CHANNELS 6 Xposition Yposition Zposition Zrotation Xrotation Yrotation 
							JOINT Hand_L
							{
								OFFSET 22.2916 0.0 0.0
								CHANNELS 6 Xposition Yposition Zposition Zrotation Xrotation Yrotation 
								End Site
								{
									OFFSET 0.0 0.0 0.0
								}
							}
						}
					}
				}
				JOINT Shoulder_R
				{
					OFFSET 12.9945 -0.242716 -4.98039
					CHANNELS 6 Xposition Yposition Zposition Zrotation Xrotation Yrotation 
					JOINT UpperArm_R
					{
						OFFSET -5.34813 0.0 0.0
						CHANNELS 6 Xposition Yposition Zposition Zrotation Xrotation Yrotation 
						JOINT LowerArm_R
						{
							OFFSET -24.3289 0.000322201 0.0
							CHANNELS 6 Xposition Yposition Zposition Zrotation Xrotation Yrotation 
							JOINT Hand_R
							{
								OFFSET -22.2915 -0.000108084 0.0
								CHANNELS 6 Xposition Yposition Zposition Zrotation Xrotation Yrotation 
								End Site
								{
									OFFSET 0.0 0.0 0.0
								}
							}
						}
					}
				}
			}
		}
		JOINT UpperLeg_L
		{
			OFFSET -2.19248 -6.46944 0.0
			CHANNELS 6 Xposition Yposition Zposition Zrotation Xrotation Yrotation 
			JOINT LowerLeg_L
			{
				OFFSET 39.0811 0.0 -1.23785e-05
				CHANNELS 6 Xposition Yposition Zposition Zrotation Xrotation Yrotation 
				JOINT Foot_L
				{
					OFFSET 40.9854 0.0 -1.26872e-05
					CHANNELS 6 Xposition Yposition Zposition Zrotation Xrotation Yrotation 
					JOINT Toes_L
					{
						OFFSET 11.7543 0.0 0.0
						CHANNELS 6 Xposition Yposition Zposition Zrotation Xrotation Yrotation 
						End Site
						{
							OFFSET 0.0 0.0 0.0
						}
					}
				}
			}
		}
		JOINT UpperLeg_R
		{
			OFFSET -2.19251 6.46944 0.0
			CHANNELS 6 Xposition Yposition Zposition Zrotation Xrotation Yrotation 
			JOINT LowerLeg_R
			{
				OFFSET -39.0811 -0.00228153 -0.0401928
				CHANNELS 6 Xposition Yposition Zposition Zrotation Xrotation Yrotation 
				JOINT Foot_R
				{
					OFFSET -40.9854 0.0 0.0
					CHANNELS 6 Xposition Yposition Zposition Zrotation Xrotation Yrotation 
					JOINT Toes_R
					{
						OFFSET -11.7543 0.0 0.0
						CHANNELS 6 Xposition Yposition Zposition Zrotation Xrotation Yrotation 
						End Site
						{
							OFFSET 0.0 0.0 0.0
						}
					}
				}
			}
		}
	}
}
MOTION
Frames:	6
Frame Time:	0.0333333
0.000000 0.000000 0.000000 0.000000 0.000000 -0.000000 0.724712 90.659000 0.042139 89.969700 -4.389630 12.559900 15.735700 0.000005 -0.000001 88.805600 80.945900 -89.584100 8.984550 -0.406207 -0.000000 10.336200 -0.392359 -1.520400 16.377300 -0.000001 -0.000001 15.410400 -2.830270 0.824735 6.456720 -0.000001 -0.000000 5.250440 -2.528050 -0.852464 12.994200 -0.242716 4.980390 -91.235800 4.801850 -75.549400 5.348090 -0.000007 -0.000001 -59.686400 40.028500 -21.449700 24.328600 0.000019 0.000005 7.308670 19.118700 -21.384700 22.291600 -0.000001 0.000005 7.121040 5.261740 1.120420 12.994500 -0.242716 -4.980390 89.044500 9.688140 -84.340100 -5.348130 -0.000001 -0.000004 -63.917700 33.410600 -14.956500 -24.328900 0.000322 -0.000009 1.688870 4.325910 -21.362300 -22.291500 -0.000108 -0.000004 11.366000 5.383170 -2.398170 -2.192480 -6.469440 -0.000000 -174.719000 -14.639400 2.786050 39.081100 -0.000007 -0.000012 -0.148632 0.246328 31.106600 40.985400 -0.000006 -0.000013 1.203800 5.686200 -71.011700 11.754300 -0.000000 0.000003 -0.000224 -0.002037 -16.654100 -2.192510 6.469440 -0.000001 171.121000 21.066200 -176.895000 -39.081100 -0.002282 -0.040193 -0.222882 0.375142 31.087000 -40.985400 0.000008 0.000006 2.729000 15.297300 -70.626000 -11.754300 -0.000006 -0.000006 -0.002404 -0.033666 -17.942100
0.000000 0.000000 0.000000 0.000000 0.000000 -0.000000 0.731184 90.661000 0.002373 89.943700 -4.342760 12.620100 15.735700 0.000005 -0.000001 88.837800 81.004800 -89.612100 8.984550 -0.406207 -0.000000 10.218800 -0.379068 -1.513750 16.377300 -0.000001 -0.000001 15.515700 -2.783550 0.687428 6.456720 -0.000001 -0.000000 5.444980 -2.500960 -1.409290 12.994200 -0.242716 4.980390 -91.200700 4.712740 -75.689600 5.348090 -0.000007 -0.000001 -59.762000 39.855500 -21.319600 24.328600 0.000019 0.000005 7.290130 19.123800 -21.329900 22.291600 -0.000001 0.000005 7.115360 5.262900 1.089280 12.994500 -0.242716 -4.980390 89.079500 9.478140 -84.427000 -5.348130 -0.000001 -0.000004 -63.857600 33.241900 -14.925000 -24.328900 0.000322 -0.000009 1.694330 4.244050 -21.799200 -22.291500 -0.000108 -0.000004 11.220100 5.381650 -2.350380 -2.192480 -6.469440 -0.000000 -174.682000 -14.607500 2.803830 39.081100 -0.000007 -0.000012 -0.151584 0.250991 31.129800 40.985400 -0.000006 -0.000013 1.229330 5.756760 -70.994800 11.754300 -0.000000 0.000003 -0.000216 -0.001976 -16.651900 -2.192510 6.469440 -0.000001 171.112000 21.148900 -176.839000 -39.081100 -0.002282 -0.040193 -0.223027 0.375534 31.076800 -40.985400 0.000008 0.000006 2.732000 15.290500 -70.594300 -11.754300 -0.000006 -0.000006 -0.002598 -0.035970 -18.035900
0.000000 0.000000 0.000000 0.000000 0.000000 -0.000000 0.738493 90.666200 -0.025673 89.910600 -4.306850 12.727400 15.735700 0.000005 -0.000001 88.941400 81.078000 -89.718200 8.984550 -0.406207 -0.000000 10.073100 -0.343173 -1.522270 16.377300 -0.000001 -0.000001 15.782500 -2.727280 0.551625 6.456720 -0.000001 -0.000000 5.634840 -2.466870 -1.992470 12.994200 -0.242716 4.980390 -91.167400 4.592220 -75.720200 5.348090 -0.000007 -0.000001 -59.866700 39.865700 -21.128500 24.328600 0.000019 0.000005 7.270400 19.180500 -21.221600 22.291600 -0.000001 0.000005 7.121520 5.262350 1.104240 12.994500 -0.242716 -4.980390 89.094000 9.264370 -84.389900 -5.348130 -0.000001 -0.000004 -63.816300 32.796900 -14.808700 -24.328900 0.000322 -0.000009 1.735320 4.208760 -22.443500 -22.291500 -0.000108 -0.000004 11.051800 5.383590 -2.411540 -2.192480 -6.469440 -0.000000 -174.636000 -14.566800 2.891010 39.081100 -0.000007 -0.000012 -0.150443 0.249087 31.131400 40.985400 -0.000006 -0.000013 1.234580 5.756950 -70.975600 11.754300 -0.000000 0.000003 -0.000214 -0.001963 -16.651500 -2.192510 6.469440 -0.000001 171.058000 21.267100 -176.704000 -39.081100 -0.002282 -0.040193 -0.218454 0.368551 31.035200 -40.985400 0.000008 0.000006 2.767870 15.446300 -70.561700 -11.754300 -0.000006 -0.000006 -0.002290 -0.032293 -17.886300
0.000000 0.000000 0.000000 0.000000 0.000000 -0.000000 0.764795 90.673600 -0.086554 89.919000 -4.306500 12.722800 15.735700 0.000005 -0.000001 89.086400 81.169400 -89.875500 8.984550 -0.406207 -0.000000 9.891540 -0.294474 -1.551590 16.377300 -0.000001 -0.000001 16.032700 -2.633540 0.345331 6.456720 -0.000001 -0.000000 5.789270 -2.382010 -2.583580 12.994200 -0.242716 4.980390 -91.141900 4.499270 -75.742900 5.348090 -0.000007 -0.000001 -60.086300 39.595600 -20.843800 24.328600 0.000019 0.000005 7.287140 19.314100 -21.137600 22.291600 -0.000001 0.000005 6.944970 5.260620 1.150590 12.994500 -0.242716 -4.980390 89.108100 8.974660 -84.301200 -5.348130 -0.000001 -0.000004 -63.696000 31.947400 -14.740700 -24.328900 0.000322 -0.000009 1.995030 4.562160 -23.661700 -22.291500 -0.000108 -0.000004 10.594300 5.377180 -2.209890 -2.192480 -6.469440 -0.000000 -174.688000 -14.553600 2.836070 39.081100 -0.000007 -0.000012 -0.148602 0.246122 31.122700 40.985400 -0.000006 -0.000013 1.248580 5.708980 -70.925900 11.754300 -0.000000 0.000003 -0.000203 -0.001872 -16.648200 -2.192510 6.469440 -0.000001 171.021000 21.384400 -176.739000 -39.081100 -0.002282 -0.040193 -0.215334 0.363472 31.027800 -40.985400 0.000008 0.000006 2.782810 15.526200 -70.513600 -11.754300 -0.000006 -0.000006 -0.002539 -0.035276 -18.007600
0.000000 0.000000 0.000000 0.000000 0.000000 -0.000000 0.780575 90.684500 -0.171060 89.901200 -4.325560 12.791800 15.735700 0.000005 -0.000001 89.201400 81.199900 -89.991100 8.984550 -0.406207 -0.000000 9.831190 -0.258030 -1.556130 16.377300 -0.000001 -0.000001 16.198800 -2.538350 0.163404 6.456720 -0.000001 -0.000000 5.862000 -2.268740 -3.306340 12.994200 -0.242716 4.980390 -91.135100 4.474960 -75.750700 5.348090 -0.000007 -0.000001 -60.347200 39.199000 -20.442600 24.328600 0.000019 0.000005 7.326460 19.412500 -21.148200 22.291600 -0.000001 0.000005 7.036960 5.258280 1.212990 12.994500 -0.242716 -4.980390 89.114100 8.714840 -84.172800 -5.348130 -0.000001 -0.000004 -63.413600 30.531900 -14.734000 -24.328900 0.000322 -0.000009 2.147840 4.491000 -25.604200 -22.291500 -0.000108 -0.000004 10.228100 5.378970 -2.266090 -2.192480 -6.469440 -0.000000 -174.663000 -14.571400 2.854560 39.081100 -0.000007 -0.000012 -0.148035 0.245282 31.112500 40.985400 -0.000006 -0.000013 1.263590 5.720020 -70.864500 11.754300 -0.000000 0.000003 -0.000210 -0.001929 -16.650200 -2.192510 6.469440 -0.000001 170.999000 21.437300 -176.706000 -39.081100 -0.002282 -0.040193 -0.217996 0.368417 30.992100 -40.985400 0.000008 0.000006 2.798920 15.619400 -70.434600 -11.754300 -0.000006 -0.000006 -0.002484 -0.034621 -17.981000
0.000000 0.000000 0.000000 0.000000 0.000000 -0.000000 0.799477 90.687700 -0.239844 89.847800 -4.300200 12.815400 15.735700 0.000005 -0.000001 89.138600 81.217800 -89.906200 8.984550 -0.406207 -0.000000 9.795100 -0.276025 -1.510290 16.377300 -0.000001 -0.000001 16.349300 -2.396590 -0.001211 6.456720 -0.000001 -0.000000 5.945590 -2.082550 -4.240790 12.994200 -0.242716 4.980390 -91.143500 4.511750 -75.762700 5.348090 -0.000007 -0.000001 -60.581700 38.791100 -20.014200 24.328600 0.000019 0.000005 7.283820 19.345700 -21.098400 22.291600 -0.000001 0.000005 7.032950 5.262150 1.109450 12.994500 -0.242716 -4.980390 89.101400 8.404330 -83.875000 -5.348130 -0.000001 -0.000004 -62.685400 29.056000 -15.197300 -24.328900 0.000322 -0.000009 2.058540 3.870130 -28.050200 -22.291500 -0.000108 -0.000004 9.889150 5.374210 -2.117310 -2.192480 -6.469440 -0.000000 -174.624000 -14.559000 2.798290 39.081100 -0.000007 -0.000012 -0.148544 0.245630 31.163500 40.985400 -0.000006 -0.000013 1.293630 5.755180 -70.838700 11.754300 -0.000000 0.000003 -0.000206 -0.001901 -16.649200 -2.192510 6.469440 -0.000001 171.044000 21.512600 -176.715000 -39.081100 -0.002282 -0.040193 -0.209934 0.355227 30.975600 -40.985400 0.000008 0.000006 2.805530 15.637900 -70.374800 -11.754300 -0.000006 -0.000006 -0.002490 -0.034693 -17.983900
